<svg height="512" viewBox="0 0 60 60" width="512" xmlns="http://www.w3.org/2000/svg"><g id="Page-1" fill="none" fill-rule="evenodd"><g id="019---Contamination-Sign" fill-rule="nonzero"><g id="Icons" transform="translate(1 1)"><path id="Shape" d="m58 4v38h-58v-38c0-2.209139 1.790861-4 4-4h50c2.209139 0 4 1.790861 4 4z" fill="#f34335"/><path id="Shape" d="m54 0h-3c2.209139 0 4 1.790861 4 4v38h3v-38c0-2.209139-1.790861-4-4-4z" fill="#c71e1e"/><path id="Shape" d="m58 42v12c0 2.209139-1.790861 4-4 4h-50c-2.209139 0-4-1.790861-4-4v-12z" fill="#f4f4f4"/><path id="Shape" d="m55 42v12c0 2.209139-1.790861 4-4 4h3c2.209139 0 4-1.790861 4-4v-12z" fill="#ced7db"/><ellipse id="Oval" cx="29" cy="21.486" fill="#ffdb00" rx="7" ry="7.486"/><path id="Shape" d="m29 14c-.5051338.0012722-1.0084438.0606628-1.5.177 3.3024794.8720114 5.5766628 3.8941945 5.5 7.309.0786369 3.4165348-2.1958851 6.4412354-5.5 7.314.4915953.1160005.9949048.1750555 1.5.176 3.9978394-.1385136 7.1292155-3.4868493 7-7.485.1326001-4.0004586-2.9997409-7.352511-7-7.491z" fill="#fdc008"/></g><g id="Icons_copy" fill="#000"><path id="Shape" d="m10.476 23.677c.4700026.2898982 1.0860201.1439522 1.376-.326.8121716-1.3072823 1.9432348-2.3867302 3.287-3.137 2.2555843-1.269492 4.9348162-1.552754 7.406-.783-.3596131.9784398-.5440974 2.0125677-.545 3.055-.0774694 3.9690506 2.6409305 7.447734 6.511 8.332-.7166439 2.105911-2.1845988 3.873652-4.123 4.965-1.5777862.8891361-3.3780175 1.3056956-5.186 1.2-.5522847-.0323087-1.0261913.3892153-1.0585.9415s.3892153 1.0261913.9415 1.0585c.225.014.45.02.675.02 1.9655602.0001 3.8977557-.5080099 5.609-1.475 2.038238-1.1483705 3.6596633-2.9136969 4.631-5.042.9720642 2.1267347 2.5929524 3.8908073 4.63 5.039 1.7123874.9668552 3.6455109 1.4749374 5.612 1.475.224 0 .449-.006.674-.02.3572656-.0209.6762426-.2308114.8367754-.5506625s.1382328-.7010489-.0585-1c-.1967328-.298951-.5380098-.4702375-.8952754-.4493375-1.8086424.10597-3.6095909-.3105948-5.188-1.2-1.9378354-1.0912938-3.4053906-2.8586261-4.122-4.964 3.869322-.8841144 6.5875113-4.3616935 6.511-8.33-.0012737-1.0416602-.1854015-2.0750099-.544-3.053 2.4715712-.7691987 5.1508849-.4859662 7.407.783 1.3470642.7421229 2.4783182 1.8213454 3.283 3.132.2893972.4716511.9063488.6193971 1.378.33.4716511-.2893972.6193972-.9063488.33-1.378-.9882559-1.5969785-2.3678047-2.9152599-4.008-3.83-2.1088047-1.1839905-4.5404825-1.66395-6.941-1.37 2.6237641-3.7735083 2.7340508-8.75098178.28-12.637-.303891-.44833337-.9094787-.57323942-1.365965-.28173839s-.5979274.89344151-.319035 1.35773839c2.3346567 3.70531884 1.8133095 8.5299547-1.259 11.651-1.4477393-2.0034104-3.7692391-3.1900201-6.241-3.1900201s-4.7932607 1.1866097-6.241 3.1900201c-3.0723095-3.1210453-3.5936567-7.94568116-1.259-11.651.1925662-.30117489.2098297-.68220479.0452877-.99955942-.164542-.31735462-.4858918-.52282026-.843-.539-.3571082-.01617973-.6957215.15938453-.8882877.46055942-2.4552354 3.88629029-2.3453363 8.8648389.279 12.639-2.4000055-.2923737-4.83063.1901072-6.937 1.377-1.637199.9157006-3.0160095 2.2308685-4.008 3.823-.1393555.2260322-.18308994.4982091-.1215605.7565202.0615295.2583112.22327.4815441.4495605.6204798zm13.524-1.191c.0011579-.7719208.1316304-1.5381933.386-2.267.029.017.06.031.089.048.11.066.215.139.327.2 1.2150037.7645867 2.2306408 1.8073029 2.963 3.042.8061981 1.3572918 1.2327455 2.9063324 1.235 4.485-.0054187.2908218-.0254439.5811877-.06.87-2.9544156-.6798693-5.0205475-3.347438-4.94-6.378zm6.515.007c-.1894913.3293327-.361399.6684748-.515 1.016-.1532599-.3475113-.324834-.6866538-.514-1.016-.149-.253-.315-.49-.481-.727.328.03.659.051 1 .051s.667-.021 1-.051c-.175.234-.341.474-.49.727zm5.485-.007c.0805475 3.030562-1.9855844 5.6981307-4.94 6.378-.0344228-.2868167-.054448-.5751784-.06-.864.0023926-1.5784679.4293053-3.1272354 1.236-4.484.733648-1.2373668 1.7518124-2.2819281 2.97-3.047.1-.057.2-.126.3-.187.035-.02.072-.037.107-.057.2542509.7267945.3850581 1.4910195.387 2.261zm-6-6.486c1.8598848.0204609 3.5985845.9263973 4.681 2.439-.068.044-.137.088-.207.13s-.166.1-.248.151c-2.6239584 1.4607941-5.8163131 1.4626849-8.442.005-.092-.057-.184-.114-.278-.168-.063-.038-.125-.078-.187-.118 1.0824155-1.5126027 2.8211152-2.4185391 4.681-2.439z"/><path id="Shape" d="m5 60h50c2.7600532-.0033061 4.9966939-2.2399468 5-5v-50c-.0033061-2.76005315-2.2399468-4.99669388-5-5h-50c-2.76005315.00330612-4.99669388 2.23994685-5 5v50c.00330612 2.7600532 2.23994685 4.9966939 5 5zm50-2h-50c-1.65685425 0-3-1.3431458-3-3v-11h56v11c0 1.6568542-1.3431458 3-3 3zm-50-56h50c1.6568542 0 3 1.34314575 3 3v37h-56v-37c0-1.65685425 1.34314575-3 3-3z"/><path id="Shape" d="m15 46c-1.6568542 0-3 1.3431458-3 3v4c0 1.6568542 1.3431458 3 3 3s3-1.3431458 3-3v-4c0-1.6568542-1.3431458-3-3-3zm1 7c0 .5522847-.4477153 1-1 1s-1-.4477153-1-1v-4c0-.5522847.4477153-1 1-1s1 .4477153 1 1z"/><path id="Shape" d="m7 48c.55228475 0 1 .4477153 1 1s.44771525 1 1 1 1-.4477153 1-1c-.00000002-1.6568542-1.34314577-3-3-3s-2.99999998 1.3431458-3 3v4c.00000002 1.6568542 1.34314577 3 3 3s2.99999998-1.3431458 3-3c0-.5522847-.44771525-1-1-1s-1 .4477153-1 1-.44771525 1-1 1-1-.4477153-1-1v-4c0-.5522847.44771525-1 1-1z"/><path id="Shape" d="m25.124 46.008c-.5478221-.068322-1.0473712.3202162-1.116.868l-.876 7.007c-.0164736.0592928-.0704612.1003258-.132.1003258s-.1155264-.041033-.132-.1003258l-.876-7.008c-.0800921-.5371264-.5742283-.9121552-1.1130995-.8447963-.5388713.0673589-.9254885.5524819-.8709005 1.0927963l.876 7.009c.1353399 1.0655498 1.0418895 1.864238 2.116 1.864238s1.9806601-.7986882 2.116-1.864238l.876-7.008c.068322-.5478221-.3202162-1.0473712-.868-1.116z"/><path id="Shape" d="m29 46c-.5522847 0-1 .4477153-1 1v8c0 .5522847.4477153 1 1 1s1-.4477153 1-1v-8c0-.5522847-.4477153-1-1-1z"/><path id="Shape" d="m35 46h-1.5c-.8284271 0-1.5.6715729-1.5 1.5v7c0 .8284271.6715729 1.5 1.5 1.5h1.5c1.6568542 0 3-1.3431458 3-3v-4c0-1.6568542-1.3431458-3-3-3zm1 7c0 .5522847-.4477153 1-1 1h-1v-6h1c.5522847 0 1 .4477153 1 1z"/><path id="Shape" d="m47 46c-.5522847 0-1 .4477153-1 1v8c0 .5522847.4477153 1 1 1s1-.4477153 1-1v-8c0-.5522847-.4477153-1-1-1z"/><path id="Shape" d="m53 46c-1.6568542 0-3 1.3431458-3 3s1.3431458 3 3 3h1v3c0 .5522847.4477153 1 1 1s1-.4477153 1-1v-6c0-1.6568542-1.3431458-3-3-3zm1 4h-1c-.5522847 0-1-.4477153-1-1s.4477153-1 1-1 1 .4477153 1 1z"/><path id="Shape" d="m43 50h-2c-.5522847 0-1 .4477153-1 1s.4477153 1 1 1h2c.5522847 0 1-.4477153 1-1s-.4477153-1-1-1z"/></g></g></g></svg>